<svg width="32" height="39" viewBox="0 0 32 39" fill="none" xmlns="http://www.w3.org/2000/svg">
<path d="M25.9188 38.4081C25.8008 38.4081 25.6829 38.4081 25.5649 38.4081C25.4673 38.396 25.3697 38.3758 25.2761 38.3718C24.9629 38.3516 24.6456 38.3354 24.3324 38.3152C23.0471 38.2303 21.7617 38.1414 20.4804 38.0565C19.4594 37.9878 18.4344 37.9191 17.4134 37.8463C16.1891 37.7614 14.9647 37.6725 13.7363 37.5877C12.6991 37.5149 11.6659 37.4462 10.6287 37.3775C9.39617 37.2926 8.16369 37.2037 6.93527 37.1188C6.12175 37.0622 5.30823 37.0097 4.49877 36.949C3.45747 36.8763 2.41616 36.7995 1.37485 36.7227C0.919279 36.6863 0.471842 36.6499 0 36.6095C0.0488113 36.0033 0.0935549 35.4212 0.142366 34.8352C0.227786 33.8287 0.317273 32.8183 0.402693 31.8119C0.484045 30.8499 0.569465 29.8879 0.654885 28.926C0.740304 27.9398 0.829792 26.9495 0.915211 25.9633C1.00063 25.0014 1.08198 24.0394 1.1674 23.0774C1.25282 22.0953 1.34231 21.1131 1.42773 20.135C1.51315 19.1852 1.5945 18.2353 1.67992 17.2895C1.76534 16.3195 1.85483 15.3535 1.94025 14.3835C2.02567 13.4336 2.10702 12.4838 2.19244 11.538C2.27786 10.5841 2.36328 9.62621 2.45277 8.67234C2.53005 7.83972 2.6114 7.01114 2.68869 6.17852C2.69682 6.07343 2.74563 6.0411 2.85139 6.03302C3.63644 5.98856 4.42556 5.93197 5.2106 5.88751C6.19903 5.82688 7.19153 5.7703 8.17996 5.72179C8.35486 5.71371 8.42808 5.64096 8.45655 5.46716C8.53791 4.99426 8.60299 4.50924 8.74942 4.05251C9.59955 1.39703 12.3167 -0.478386 15.6399 0.10768C16.0508 0.180433 16.4494 0.338065 16.8643 0.390609C17.4094 0.455278 17.9625 0.471446 18.5157 0.479529C19.3415 0.495697 20.1265 0.649287 20.8587 1.05347C22.1969 1.78909 23.1691 2.81975 23.5718 4.31928C23.6084 4.46074 23.645 4.6022 23.6735 4.72346C24.3568 4.68304 25.0117 4.63858 25.6666 4.59816C26.175 4.56583 26.6754 4.59412 27.1594 4.78005C27.4767 4.9013 27.798 4.89322 28.1194 4.76388C28.2373 4.71538 28.3675 4.69113 28.5099 4.65475C28.5261 4.73559 28.5465 4.80025 28.5546 4.86088C28.64 5.51566 28.7254 6.1664 28.8068 6.82117C28.937 7.85588 29.059 8.89464 29.1851 9.92935C29.3112 10.9802 29.4332 12.0271 29.5552 13.0779C29.6813 14.1329 29.8074 15.1878 29.9335 16.2427C30.0474 17.1966 30.1613 18.1464 30.2711 19.1003C30.3972 20.1512 30.5193 21.198 30.6413 22.2489C30.7511 23.1866 30.865 24.1283 30.9748 25.066C31.0887 26.0118 31.1985 26.9576 31.3124 27.9034C31.4263 28.8573 31.5361 29.8071 31.65 30.761C31.7639 31.7189 31.8778 32.6768 31.9795 33.6388C32.0324 34.1602 32.0202 34.1642 31.4751 34.1723C30.7714 34.1804 30.0677 34.1804 29.3641 34.1763C29.2136 34.1763 29.1281 34.2208 29.0386 34.338C28.701 34.7907 28.3553 35.2313 28.0095 35.6759C27.3221 36.5812 26.6184 37.4947 25.9188 38.4081ZM26.35 5.41461C26.1669 15.9759 25.9839 26.4928 25.8008 37.0097C25.8334 37.0299 25.8659 37.046 25.8984 37.0663C25.9229 37.0137 25.9391 36.9531 25.9757 36.9086C26.7974 35.8497 27.6231 34.7907 28.4448 33.7317C28.4895 33.6711 28.518 33.5781 28.518 33.5014C28.4814 32.3656 28.4366 31.2298 28.3919 30.0941C28.3309 28.5137 28.2699 26.9374 28.2088 25.357C28.1641 24.1687 28.1234 22.9804 28.0746 21.7962C28.0136 20.2482 27.9526 18.7042 27.8916 17.1562C27.8346 15.6809 27.7777 14.2056 27.7207 12.7344C27.6597 11.2227 27.5987 9.70705 27.5377 8.1954C27.5052 7.43149 27.4645 6.66758 27.4319 5.90772C27.4279 5.80667 27.4075 5.73796 27.2977 5.70563C27.0048 5.62075 26.716 5.52779 26.35 5.41461ZM8.77383 16.946C8.84298 16.8651 8.89992 16.8045 8.94873 16.7398C10.1731 15.0665 11.3934 13.3932 12.6259 11.728C12.8211 11.4612 12.8943 11.1864 12.8577 10.8711C12.7357 9.83639 12.6218 8.79763 12.4998 7.76292C12.4753 7.54062 12.4021 7.5002 12.1784 7.55275C11.1615 7.78313 10.1487 8.01756 9.13178 8.23582C8.89992 8.28432 8.72095 8.38537 8.58672 8.57533C7.33389 10.3133 6.077 12.0513 4.81605 13.7853C4.69809 13.9469 4.70622 14.0439 4.86893 14.1612C5.6133 14.6987 6.34547 15.2484 7.08984 15.7819C7.64303 16.174 8.20843 16.5539 8.77383 16.946ZM18.8859 5.00639C18.8778 4.92959 18.8778 4.90534 18.8737 4.87705C18.6256 3.62812 17.9178 2.71062 16.8155 2.0801C16.7423 2.03968 16.608 2.05989 16.5267 2.09626C15.3023 2.63383 14.4888 3.51899 14.2081 4.84067C14.1756 4.98214 14.1553 5.12764 14.1187 5.31761C15.7254 5.21656 17.2955 5.11148 18.8859 5.00639ZM14.7247 1.52232C14.6637 1.5102 14.6434 1.50211 14.6271 1.50211C14.5742 1.50211 14.5214 1.50211 14.4685 1.50616C13.354 1.61529 12.3615 2.01543 11.4991 2.72679C10.7181 3.3654 10.2138 4.17781 9.99818 5.16402C9.92496 5.49141 9.98191 5.56416 10.3195 5.55608C10.3521 5.55608 10.3846 5.55204 10.4171 5.55204C10.8036 5.53183 11.19 5.51566 11.5764 5.48737C11.9628 5.45907 12.3452 5.4227 12.7438 5.39036C12.7886 3.7898 13.5451 2.56108 14.7247 1.52232ZM18.9998 1.84971C19.0567 1.93055 19.0974 1.98714 19.1422 2.04372C19.7198 2.77125 20.1265 3.57558 20.3299 4.48095C20.4194 4.87705 20.4275 4.88513 20.8465 4.87301C21.3143 4.86088 21.782 4.82855 22.2539 4.8043C22.0261 3.37753 20.4519 1.9548 18.9998 1.84971Z" fill="#FA0082"/>
<path d="M10.6164 11.1338C9.94121 11.1298 9.4287 10.6124 9.43276 9.93338C9.43683 9.27052 9.99002 8.74104 10.6652 8.74508C11.2957 8.74912 11.8489 9.3271 11.8408 9.98188C11.8367 10.6124 11.2795 11.1378 10.6164 11.1338Z" fill="#FA0082"/>
</svg>
