<svg xmlns="http://www.w3.org/2000/svg" version="1.0" viewBox="0 0 1200 1200" preserveAspectRatio="xMidYMid meet">
<g id="layer101" fill="#00e676" stroke="none">
 <path d="M40 1154 c0 -4 16 -68 36 -140 l36 -133 -25 -63 c-37 -92 -51 -177 -44 -266 23 -292 261 -514 552 -515 157 -1 287 53 396 162 108 108 163 240 163 391 0 187 -98 368 -257 476 -136 92 -352 113 -511 49 l-64 -26 -119 31 c-65 16 -128 33 -140 36 -13 4 -23 3 -23 -2z"/>
 </g>
<g id="layer102" fill="#fbfffd" stroke="none">
 <path d="M40 1154 c0 -4 16 -68 36 -140 l36 -133 -25 -63 c-37 -92 -51 -177 -44 -266 23 -292 261 -514 552 -515 157 -1 287 53 396 162 108 108 163 240 163 391 0 187 -98 368 -257 476 -136 92 -352 113 -511 49 l-64 -26 -119 31 c-65 16 -128 33 -140 36 -13 4 -23 3 -23 -2z m698 -112 c147 -46 265 -167 307 -316 23 -80 17 -219 -14 -298 -64 -166 -220 -282 -396 -295 -273 -21 -506 196 -505 470 1 71 16 131 51 204 l31 61 -21 77 c-12 43 -19 80 -17 83 3 2 42 -5 87 -16 77 -19 85 -20 113 -5 103 54 255 68 364 35z"/>
 <path d="M674 846 c-84 -27 -164 -79 -237 -155 -116 -121 -150 -214 -111 -298 21 -43 54 -65 91 -61 23 2 33 13 55 58 33 67 34 89 7 124 -15 19 -19 34 -15 52 13 50 151 164 199 164 7 0 26 -13 42 -30 16 -16 35 -30 42 -30 8 0 41 14 74 31 59 29 61 32 55 62 -16 79 -101 114 -202 83z"/>
 </g>

</svg>